<?xml version="1.0" standalone="no"?>
<!DOCTYPE svg PUBLIC "-//W3C//DTD SVG 20010904//EN"
 "http://www.w3.org/TR/2001/REC-SVG-20010904/DTD/svg10.dtd">
<svg version="1.0" xmlns="http://www.w3.org/2000/svg"
 width="434.000000pt" height="444.000000pt" viewBox="0 0 434.000000 444.000000"
 preserveAspectRatio="xMidYMid meet">

<g transform="translate(0.000000,444.000000) scale(0.100000,-0.100000)"
fill="#000000" stroke="none">
<path d="M1950 3991 c-14 -28 13 -55 41 -41 22 12 25 30 7 48 -18 18 -36 15
-48 -7z"/>
<path d="M2077 3996 c-10 -26 4 -47 27 -44 15 2 21 10 21 28 0 29 -38 41 -48
16z"/>
<path d="M2222 3998 c-25 -25 0 -64 32 -52 21 8 21 50 0 58 -20 8 -18 8 -32
-6z"/>
<path d="M1833 3993 c-18 -7 -16 -53 3 -60 8 -3 22 1 30 9 24 24 -1 62 -33 51z"/>
<path d="M2347 3976 c-10 -26 4 -47 27 -44 15 2 21 10 21 28 0 29 -38 41 -48
16z"/>
<path d="M1687 3951 c-6 -22 10 -41 34 -41 19 0 31 23 23 45 -9 22 -51 19 -57
-4z"/>
<path d="M2482 3958 c-25 -25 0 -64 32 -52 21 8 21 50 0 58 -20 8 -18 8 -32
-6z"/>
<path d="M1564 3926 c-10 -26 4 -48 28 -44 17 2 23 10 23 28 0 18 -6 26 -23
28 -13 2 -25 -3 -28 -12z"/>
<path d="M2607 3924 c-10 -11 -9 -42 3 -49 20 -12 51 6 48 28 -3 22 -36 35
-51 21z"/>
<path d="M1860 3895 c-390 -54 -754 -237 -1026 -517 -262 -269 -418 -580 -485
-968 -17 -98 -17 -421 0 -525 16 -97 61 -266 95 -355 232 -614 790 -1052 1439
-1131 123 -15 424 -6 527 15 383 77 682 236 945 502 254 257 421 586 487 964
17 99 17 441 -1 540 -102 582 -450 1054 -966 1308 -309 152 -679 213 -1015
167z m460 -69 c168 -23 379 -85 513 -152 346 -174 614 -440 786 -782 50 -100
114 -289 141 -417 27 -128 37 -372 21 -515 -58 -519 -356 -982 -813 -1263
-179 -111 -425 -197 -645 -227 -110 -15 -360 -15 -458 0 -700 103 -1259 612
-1419 1290 -36 152 -37 159 -43 335 -10 286 48 553 176 812 152 307 443 598
760 758 138 69 347 135 508 158 128 19 339 20 473 3z"/>
<path d="M2124 3732 c-36 -5 -59 -40 -59 -87 0 -59 25 -85 80 -85 51 0 75 22
82 77 8 63 -38 105 -103 95z m46 -27 c26 -13 30 -21 30 -55 0 -22 -7 -45 -16
-54 -18 -19 -65 -21 -82 -4 -20 20 -15 85 8 108 24 24 23 24 60 5z"/>
<path d="M1913 3723 c-37 -5 -38 -12 -27 -110 8 -62 24 -71 24 -13 0 36 3 40
25 40 14 0 25 4 25 9 0 6 -12 9 -27 8 -24 -2 -28 2 -28 23 0 20 6 26 28 28 15
2 27 8 27 13 0 5 -3 8 -7 7 -5 0 -23 -3 -40 -5z"/>
<path d="M2326 3702 c-12 -40 -26 -136 -20 -141 7 -8 24 20 24 42 0 25 27 21
33 -5 8 -30 34 -65 42 -57 3 4 -2 23 -12 44 -17 35 -17 37 0 46 10 6 17 22 17
39 0 24 -5 31 -27 36 -16 3 -33 7 -40 9 -7 2 -14 -4 -17 -13z m62 -40 c-4 -22
-48 -29 -48 -9 0 9 3 22 6 31 8 21 46 1 42 -22z"/>
<path d="M1650 3656 c0 -7 7 -33 15 -56 8 -24 14 -45 12 -46 -2 -2 -27 17 -57
41 -54 45 -87 58 -77 31 3 -7 15 -46 27 -86 13 -44 25 -69 31 -63 6 6 3 27 -7
57 -9 26 -14 49 -12 51 2 2 29 -16 60 -41 34 -26 59 -40 63 -34 8 13 -35 160
-46 160 -5 0 -9 -6 -9 -14z"/>
<path d="M2626 3568 c-14 -35 -26 -67 -26 -73 0 -13 78 -46 84 -36 3 4 -11 15
-30 24 -31 15 -33 19 -24 38 9 16 17 19 41 14 18 -4 29 -3 29 4 0 6 -6 11 -12
11 -29 1 -41 17 -29 39 10 18 15 19 32 10 11 -5 25 -8 32 -6 12 4 -43 37 -61
37 -5 0 -21 -28 -36 -62z"/>
<path d="M1355 3545 c-29 -28 -31 -54 -10 -94 34 -67 135 -50 135 23 0 83 -73
124 -125 71z m85 -22 c26 -33 23 -71 -7 -90 -21 -14 -25 -13 -53 15 -33 34
-38 62 -14 86 23 24 50 19 74 -11z"/>
<path d="M2822 3486 c-14 -73 -15 -106 -4 -106 16 0 135 104 123 108 -7 2 -35
-15 -63 -39 -46 -39 -51 -41 -45 -18 3 13 9 45 12 72 11 71 -10 57 -23 -17z"/>
<path d="M1200 3449 c0 -19 81 -130 91 -123 6 3 3 16 -7 32 -56 86 -67 102
-75 102 -5 0 -9 -5 -9 -11z"/>
<path d="M1947 3450 c-570 -60 -1036 -498 -1143 -1075 -25 -135 -22 -352 6
-485 102 -482 449 -863 906 -995 156 -45 261 -58 428 -52 202 7 323 35 501
114 156 70 283 161 405 289 171 180 281 388 335 634 25 114 30 354 11 472 -79
485 -415 883 -872 1036 -176 59 -385 81 -577 62z m398 -35 c507 -106 886 -468
1011 -967 35 -139 43 -358 20 -503 -92 -559 -543 -999 -1103 -1075 -114 -16
-337 -8 -443 15 -454 100 -816 427 -964 870 -82 244 -80 547 5 799 157 468
566 806 1059 875 95 13 322 6 415 -14z"/>
<path d="M1980 3388 c-498 -43 -922 -386 -1074 -868 -45 -142 -59 -248 -53
-410 8 -211 45 -358 135 -534 146 -284 398 -503 697 -604 665 -226 1373 119
1598 778 60 177 80 402 51 589 -47 305 -219 600 -458 785 -266 205 -564 293
-896 264z m340 -34 c483 -85 875 -464 982 -951 29 -131 31 -367 4 -493 -125
-580 -620 -985 -1205 -988 -679 -2 -1231 549 -1231 1228 0 467 262 887 685
1098 148 74 287 111 455 120 137 8 197 6 310 -14z"/>
<path d="M1064 2300 c-110 -56 -110 -222 0 -274 63 -30 132 -20 184 27 28 26
28 29 -9 51 -27 16 -32 16 -47 3 -27 -22 -50 -27 -79 -16 -35 13 -52 37 -53
75 0 60 75 95 127 59 19 -13 25 -13 52 3 17 9 31 20 31 24 0 4 -16 19 -35 34
-49 37 -116 42 -171 14z"/>
<path d="M1370 2297 c-142 -75 -85 -287 78 -287 160 0 216 208 76 287 -50 29
-100 29 -154 0z m119 -67 c10 -5 24 -23 31 -39 15 -38 -3 -80 -43 -99 -81 -39
-150 80 -79 134 20 16 66 18 91 4z"/>
<path d="M2050 2303 c-17 -12 -25 -13 -28 -5 -2 7 -19 12 -38 12 l-34 0 0
-150 0 -150 35 0 35 0 1 83 c1 45 4 93 8 107 5 19 39 47 68 56 2 0 6 15 9 32
6 27 4 32 -13 32 -10 0 -29 -8 -43 -17z"/>
<path d="M2193 2312 c-42 -13 -63 -39 -63 -80 0 -53 15 -68 95 -95 77 -26 93
-50 37 -55 -22 -2 -41 3 -53 13 -20 19 -51 16 -82 -7 -18 -13 -17 -15 8 -40
30 -30 91 -44 158 -35 52 7 87 44 87 91 0 42 -31 71 -101 94 -34 10 -54 23
-54 32 0 20 48 25 64 6 11 -13 16 -13 47 1 40 20 39 30 -6 61 -33 22 -89 28
-137 14z"/>
<path d="M2482 2303 c-53 -26 -77 -68 -77 -138 0 -71 24 -113 81 -140 51 -24
135 -17 169 15 31 29 31 34 0 54 -23 15 -28 15 -47 1 -13 -8 -34 -15 -49 -15
-27 0 -79 34 -79 51 0 5 49 9 109 9 120 0 123 2 110 59 -22 97 -128 148 -217
104z m125 -74 c31 -26 14 -39 -51 -39 -36 0 -67 4 -71 9 -3 5 7 19 22 31 29
22 72 22 100 -1z"/>
<path d="M2840 2303 c-17 -12 -25 -13 -28 -5 -2 7 -19 12 -38 12 l-34 0 0
-150 0 -150 35 0 35 0 1 83 c1 45 4 93 8 107 5 19 39 47 68 56 2 0 6 15 9 32
6 27 4 32 -13 32 -10 0 -29 -8 -43 -17z"/>
<path d="M2980 2298 c-48 -33 -72 -70 -77 -120 -6 -56 24 -120 70 -148 38 -24
113 -26 144 -5 19 13 22 13 27 0 3 -9 19 -15 41 -15 l35 0 0 150 0 150 -40 0
c-31 0 -40 -4 -40 -17 0 -11 -3 -14 -8 -7 -25 39 -104 44 -152 12z m137 -80
c15 -14 23 -33 23 -52 -1 -80 -98 -110 -144 -44 -53 75 53 160 121 96z"/>
<path d="M1630 2210 c0 -110 13 -157 51 -184 28 -19 109 -21 128 -3 11 10 14
10 18 0 3 -8 22 -13 44 -13 l39 0 0 150 0 150 -40 0 -40 0 0 -98 c0 -109 -11
-132 -63 -132 -44 0 -57 32 -57 137 l0 93 -40 0 -40 0 0 -100z"/>
<path d="M2983 3361 l-53 -66 33 -27 c17 -15 39 -27 47 -27 9 0 3 10 -17 27
l-31 27 19 24 c19 23 20 23 39 6 11 -10 23 -15 28 -11 4 4 -3 16 -14 25 -21
17 -21 19 -5 40 l17 22 19 -20 c18 -21 45 -28 45 -13 0 4 -17 19 -38 33 l-37
26 -52 -66z"/>
<path d="M1055 3345 c-46 -41 -53 -63 -9 -30 18 13 23 10 65 -38 59 -65 76
-55 20 11 -45 54 -49 67 -26 76 15 5 21 26 8 26 -5 0 -30 -20 -58 -45z"/>
<path d="M3140 3235 c-29 -30 -51 -58 -47 -61 4 -4 17 2 30 14 34 32 38 28 31
-27 -4 -31 -2 -51 5 -55 7 -5 11 2 11 16 0 46 12 67 38 70 40 5 49 30 23 67
-12 17 -26 31 -30 31 -3 0 -31 -25 -61 -55z m78 0 c5 -23 -17 -36 -41 -24 -18
10 -18 11 -1 30 20 22 37 20 42 -6z"/>
<path d="M905 3200 c-3 -5 12 -44 33 -86 23 -45 42 -72 46 -66 4 7 3 19 -2 29
-16 28 15 65 51 61 16 -2 29 1 29 7 0 14 -150 66 -157 55z m74 -39 c13 -8 13
-12 1 -26 -13 -16 -15 -16 -27 1 -23 32 -8 46 26 25z"/>
<path d="M3316 3091 c-8 -22 -29 -50 -46 -62 -19 -14 -27 -26 -21 -32 6 -6 20
-2 37 12 19 15 41 21 75 21 27 0 49 5 49 10 0 6 -19 10 -41 10 -37 0 -41 2
-35 20 3 11 9 29 12 40 12 37 -14 20 -30 -19z"/>
<path d="M780 3038 c-27 -45 -25 -64 9 -99 38 -37 82 -39 116 -4 25 24 34 65
15 65 -5 0 -10 -8 -10 -18 0 -25 -31 -52 -59 -52 -24 0 -71 41 -71 63 0 8 9
26 20 40 22 28 25 37 10 37 -6 0 -19 -15 -30 -32z"/>
<path d="M3388 2914 c-51 -27 -48 -110 3 -128 55 -19 119 20 119 74 0 60 -62
87 -122 54z m90 -16 c20 -20 13 -55 -14 -77 -46 -36 -94 -23 -94 25 0 44 78
82 108 52z"/>
<path d="M680 2857 c0 -7 25 -25 55 -40 57 -28 70 -52 41 -76 -11 -9 -27 -6
-72 14 -33 15 -61 22 -66 17 -6 -6 18 -21 55 -37 53 -22 69 -25 86 -16 22 12
37 52 28 76 -8 20 -127 79 -127 62z"/>
<path d="M3503 2703 c-40 -14 -73 -29 -73 -34 0 -12 11 -11 60 6 24 8 44 14
46 12 2 -1 -15 -26 -37 -55 -22 -29 -38 -56 -34 -61 5 -10 122 24 139 40 19
17 -2 18 -42 2 -23 -9 -45 -13 -48 -10 -4 3 10 26 31 51 55 67 46 78 -42 49z"/>
<path d="M614 2663 c-14 -10 -34 -48 -44 -83 -8 -27 -7 -28 64 -49 39 -12 76
-21 82 -21 16 0 34 78 24 104 -4 12 -15 28 -24 35 -18 16 -87 25 -102 14z m81
-31 c25 -18 35 -42 29 -66 -7 -30 -22 -32 -87 -10 -51 17 -56 27 -31 62 15 22
67 31 89 14z"/>
<path d="M3564 2483 c-57 -12 -71 -18 -68 -31 11 -58 15 -72 23 -72 5 0 5 15
1 34 -7 30 -5 35 14 40 32 9 33 8 42 -21 l7 -28 6 30 c4 21 13 31 29 33 18 3
22 -1 22 -22 0 -14 5 -28 10 -31 6 -3 10 0 10 8 0 27 -12 77 -19 76 -3 -1 -38
-8 -77 -16z"/>
<path d="M530 2408 c0 -13 -3 -33 -6 -44 -5 -20 0 -22 72 -33 42 -6 78 -10 79
-9 2 2 6 22 10 46 4 28 3 42 -4 42 -6 0 -11 -13 -11 -28 0 -36 -5 -40 -35 -34
-20 3 -25 11 -26 36 l-1 31 -10 -27 c-7 -20 -17 -28 -34 -28 -23 0 -24 3 -18
35 4 23 2 35 -5 35 -6 0 -11 -10 -11 -22z"/>
<path d="M572 2178 c-28 -28 -3 -66 33 -52 25 10 12 64 -15 64 -3 0 -11 -5
-18 -12z"/>
<path d="M3582 2163 c-13 -26 -4 -43 23 -43 27 0 40 26 24 46 -16 19 -37 17
-47 -3z"/>
<path d="M643 1750 c-26 -15 -33 -26 -33 -51 0 -34 15 -69 31 -69 6 0 6 7 -1
19 -5 11 -10 31 -10 46 0 20 8 29 36 41 48 20 70 11 88 -39 14 -41 14 -41 15
-11 1 42 -33 84 -67 84 -15 0 -42 -9 -59 -20z"/>
<path d="M3431 1699 c-7 -23 -11 -42 -9 -43 2 -1 30 -10 63 -20 33 -10 65 -20
71 -23 6 -2 16 15 23 38 15 48 6 67 -10 21 -11 -33 -23 -38 -48 -23 -9 6 -11
18 -7 35 3 14 2 26 -3 26 -5 0 -12 -12 -15 -26 -5 -18 -12 -24 -22 -20 -9 3
-20 6 -25 6 -9 0 -7 17 8 58 3 6 1 12 -4 12 -6 0 -15 -18 -22 -41z"/>
<path d="M3352 1503 c-18 -34 -28 -64 -23 -67 4 -3 13 6 19 20 l12 24 60 -30
c67 -34 70 -35 70 -17 -1 6 -28 24 -61 39 -55 25 -59 29 -49 48 6 12 9 26 7
33 -2 7 -18 -16 -35 -50z"/>
<path d="M760 1543 c-55 -20 -79 -92 -42 -126 45 -41 142 -1 142 58 0 48 -54
85 -100 68z m64 -29 c23 -23 19 -50 -10 -73 -34 -27 -69 -27 -88 1 -18 26 -8
51 32 72 35 20 47 19 66 0z"/>
<path d="M888 1314 c-55 -41 -66 -66 -44 -99 23 -35 58 -32 116 12 67 50 52
63 -16 14 -55 -39 -77 -43 -88 -15 -9 23 2 40 50 73 40 29 56 51 37 51 -5 0
-29 -16 -55 -36z"/>
<path d="M3230 1309 c0 -8 66 -113 87 -138 10 -13 13 11 3 29 -16 29 12 73 43
68 12 -1 23 2 25 7 2 5 -27 18 -65 27 -80 21 -93 22 -93 7z m80 -29 c13 -8 13
-11 -1 -25 -15 -15 -17 -14 -33 9 -16 25 -15 26 1 26 10 0 25 -5 33 -10z"/>
<path d="M3095 1155 c-33 -32 -33 -75 1 -109 34 -34 82 -35 112 -3 12 13 22
29 22 37 0 7 -11 1 -25 -14 -30 -32 -65 -33 -93 -3 -29 31 -28 61 3 85 14 11
25 23 25 26 0 14 -22 4 -45 -19z"/>
<path d="M1032 1107 c-29 -29 -49 -56 -45 -60 3 -4 17 2 29 14 31 29 43 18 34
-31 -4 -21 -5 -42 -2 -45 14 -14 22 -1 22 35 0 35 3 40 23 40 27 0 47 17 47
40 0 15 -39 60 -51 60 -3 0 -28 -24 -57 -53z m77 -14 c-6 -7 -17 -13 -25 -13
-23 0 -27 21 -8 41 17 19 19 19 31 3 9 -13 10 -21 2 -31z"/>
<path d="M2940 1010 c0 -16 81 -120 92 -120 15 0 3 23 -39 80 -36 48 -53 61
-53 40z"/>
<path d="M1236 995 c-14 -15 -12 -36 8 -86 4 -9 1 -21 -7 -27 -11 -10 -20 -8
-41 9 -21 17 -26 18 -26 5 0 -21 35 -38 68 -34 23 3 27 7 25 33 -1 17 -5 45
-9 63 -7 37 7 43 38 15 10 -9 21 -13 26 -9 8 9 -34 46 -53 46 -8 0 -20 -7 -29
-15z"/>
<path d="M2798 925 l-37 -21 26 -44 c46 -81 54 -91 64 -85 5 4 2 18 -8 36 -18
31 -15 38 22 52 6 3 7 7 3 11 -3 4 -16 2 -29 -4 -19 -11 -25 -10 -36 6 -12 16
-10 21 14 40 38 30 26 36 -19 9z"/>
<path d="M1391 843 l-33 -67 24 -17 c13 -10 31 -20 41 -23 27 -7 20 13 -8 24
-26 10 -31 25 -16 49 8 12 14 13 35 3 31 -14 36 2 6 18 -22 12 -24 18 -11 39
8 12 14 13 37 3 14 -7 29 -10 32 -7 8 7 1 12 -39 29 l-35 15 -33 -66z"/>
<path d="M2630 840 c0 -18 54 -140 62 -140 13 0 10 16 -18 85 -23 57 -44 84
-44 55z"/>
<path d="M2495 795 c-5 -2 -29 -9 -52 -15 -48 -12 -59 -29 -14 -22 27 4 29 2
46 -62 11 -42 22 -63 28 -57 5 5 3 30 -7 65 -18 61 -15 76 15 76 10 0 19 5 19
10 0 10 -15 12 -35 5z"/>
<path d="M1744 757 c-20 -18 -27 -33 -28 -64 0 -22 5 -48 13 -56 17 -21 79
-33 94 -18 8 8 3 11 -19 11 -56 0 -82 59 -48 108 16 24 44 28 75 12 13 -8 19
-7 19 0 0 11 -41 30 -65 30 -8 0 -26 -10 -41 -23z"/>
<path d="M1964 741 c-2 -2 -4 -37 -4 -78 l0 -73 48 2 c43 1 44 2 10 5 -34 4
-38 7 -38 34 0 26 3 29 31 29 17 0 28 4 24 10 -3 6 -17 10 -31 10 -21 0 -25 4
-22 23 2 18 9 22 36 22 17 0 32 3 32 6 0 8 -79 17 -86 10z"/>
<path d="M2206 743 c-15 -4 -17 -11 -12 -41 3 -21 6 -54 6 -74 0 -27 4 -38 15
-38 11 0 13 7 9 29 -8 41 10 46 39 11 24 -28 47 -39 47 -23 0 4 -11 19 -25 33
-23 24 -24 28 -10 40 42 35 -5 79 -69 63z m52 -37 c4 -17 -12 -35 -29 -36 -9
0 -18 48 -11 55 12 11 37 -1 40 -19z"/>
<path d="M1441 3886 c-16 -20 -3 -46 24 -46 13 0 26 7 29 16 7 19 -10 44 -29
44 -7 0 -18 -6 -24 -14z"/>
<path d="M2726 3874 c-7 -19 10 -44 30 -44 20 0 36 34 22 48 -17 17 -45 15
-52 -4z"/>
<path d="M1320 3836 c-18 -22 -5 -48 22 -44 17 2 23 10 23 28 0 29 -26 38 -45
16z"/>
<path d="M2847 3826 c-10 -26 4 -47 27 -44 15 2 21 10 21 28 0 29 -38 41 -48
16z"/>
<path d="M1200 3765 c0 -31 26 -43 46 -23 20 20 7 48 -22 48 -19 0 -24 -5 -24
-25z"/>
<path d="M2964 3766 c-10 -26 4 -48 28 -44 17 2 23 10 23 28 0 18 -6 26 -23
28 -13 2 -25 -3 -28 -12z"/>
<path d="M1092 3718 c-25 -25 0 -64 32 -52 21 8 21 50 0 58 -20 8 -18 8 -32
-6z"/>
<path d="M3076 3694 c-7 -19 10 -44 30 -44 16 0 33 30 27 48 -7 18 -50 15 -57
-4z"/>
<path d="M976 3634 c-7 -19 10 -44 30 -44 16 0 33 30 27 48 -7 18 -50 15 -57
-4z"/>
<path d="M3192 3631 c-23 -14 -10 -46 18 -46 20 0 25 5 25 25 0 26 -20 36 -43
21z"/>
<path d="M874 3556 c-10 -26 4 -48 28 -44 17 2 23 10 23 28 0 18 -6 26 -23 28
-13 2 -25 -3 -28 -12z"/>
<path d="M3283 3534 c-8 -21 19 -46 40 -38 9 3 17 17 17 30 0 19 -5 24 -25 24
-14 0 -28 -7 -32 -16z"/>
<path d="M780 3465 c-10 -12 -10 -18 0 -30 7 -8 18 -15 25 -15 19 0 36 25 29
44 -8 20 -38 21 -54 1z"/>
<path d="M3380 3435 c0 -31 26 -43 47 -22 21 21 9 47 -22 47 -20 0 -25 -5 -25
-25z"/>
<path d="M696 3374 c-21 -20 -20 -31 1 -43 21 -11 53 3 53 24 0 25 -36 37 -54
19z"/>
<path d="M3472 3353 c-13 -26 -4 -43 23 -43 27 0 40 26 24 46 -16 19 -37 17
-47 -3z"/>
<path d="M603 3264 c-8 -20 21 -49 41 -41 9 4 16 18 16 32 0 20 -5 25 -25 25
-14 0 -28 -7 -32 -16z"/>
<path d="M3563 3263 c-19 -7 -16 -50 4 -57 24 -10 51 20 37 41 -12 19 -23 24
-41 16z"/>
<path d="M543 3173 c-7 -2 -13 -16 -13 -29 0 -19 5 -24 25 -24 30 0 43 24 25
45 -13 16 -17 17 -37 8z"/>
<path d="M3632 3151 c-23 -14 -10 -46 18 -46 16 0 26 6 28 19 3 16 -12 36 -28
36 -3 0 -11 -4 -18 -9z"/>
<path d="M464 3046 c-10 -26 4 -48 28 -44 17 2 23 10 23 28 0 18 -6 26 -23 28
-13 2 -25 -3 -28 -12z"/>
<path d="M3690 3015 c0 -31 26 -43 47 -22 21 21 9 47 -22 47 -20 0 -25 -5 -25
-25z"/>
<path d="M412 2938 c-17 -17 -15 -36 6 -47 13 -7 23 -6 30 1 17 17 15 45 -4
52 -20 8 -18 8 -32 -6z"/>
<path d="M3751 2916 c-9 -11 -10 -20 -1 -35 13 -25 23 -26 44 -5 21 20 20 31
-3 44 -25 13 -26 13 -40 -4z"/>
<path d="M363 2823 c-16 -6 -17 -35 -1 -51 15 -15 48 3 48 27 0 15 -23 35 -33
30 -1 0 -8 -3 -14 -6z"/>
<path d="M3804 2796 c-20 -15 -13 -43 12 -53 20 -7 45 22 38 42 -8 20 -30 25
-50 11z"/>
<path d="M314 2686 c-10 -26 4 -48 28 -44 17 2 23 10 23 28 0 18 -6 26 -23 28
-13 2 -25 -3 -28 -12z"/>
<path d="M3841 2666 c-16 -20 -3 -46 24 -46 27 0 36 17 23 43 -10 20 -31 22
-47 3z"/>
<path d="M280 2545 c0 -31 26 -43 46 -23 20 20 7 48 -22 48 -19 0 -24 -5 -24
-25z"/>
<path d="M3866 2534 c-7 -19 10 -44 29 -44 19 0 36 25 29 44 -3 9 -16 16 -29
16 -13 0 -26 -7 -29 -16z"/>
<path d="M267 2438 c-21 -11 -22 -31 -3 -47 20 -16 46 -3 46 24 0 27 -19 37
-43 23z"/>
<path d="M3894 2405 c-8 -21 2 -45 19 -45 20 0 40 27 33 45 -7 19 -45 20 -52
0z"/>
<path d="M253 2313 c-19 -7 -16 -50 3 -57 19 -7 44 10 44 30 0 16 -30 33 -47
27z"/>
<path d="M3904 2276 c-10 -26 4 -48 28 -44 17 2 23 10 23 28 0 18 -6 26 -23
28 -13 2 -25 -3 -28 -12z"/>
<path d="M242 2178 c-24 -24 -5 -59 29 -51 23 6 26 48 3 57 -20 8 -18 8 -32
-6z"/>
<path d="M3911 2167 c-17 -21 -3 -47 26 -47 21 0 24 4 21 27 -3 31 -29 41 -47
20z"/>
<path d="M247 2053 c-4 -3 -7 -17 -7 -30 0 -18 5 -23 25 -23 14 0 28 7 31 15
11 27 -30 58 -49 38z"/>
<path d="M3904 2036 c-10 -26 4 -48 28 -44 17 2 23 10 23 28 0 18 -6 26 -23
28 -13 2 -25 -3 -28 -12z"/>
<path d="M254 1916 c-10 -26 4 -48 28 -44 17 2 23 10 23 28 0 18 -6 26 -23 28
-13 2 -25 -3 -28 -12z"/>
<path d="M3893 1909 c-17 -17 -3 -49 22 -49 27 0 40 26 24 46 -14 17 -31 18
-46 3z"/>
<path d="M280 1786 c-18 -22 -5 -46 25 -46 23 0 26 4 23 27 -3 32 -29 41 -48
19z"/>
<path d="M3864 1776 c-10 -26 4 -48 28 -44 17 2 23 10 23 28 0 18 -6 26 -23
28 -13 2 -25 -3 -28 -12z"/>
<path d="M306 1654 c-7 -19 10 -44 30 -44 16 0 33 30 27 48 -7 18 -50 15 -57
-4z"/>
<path d="M3837 1654 c-12 -13 -8 -42 8 -48 25 -9 46 5 43 28 -3 21 -37 34 -51
20z"/>
<path d="M358 1539 c-24 -14 -22 -36 4 -50 18 -9 24 -8 34 6 9 13 10 23 3 36
-11 21 -17 23 -41 8z"/>
<path d="M3794 1525 c-9 -23 3 -45 25 -45 25 0 34 14 26 40 -7 23 -43 27 -51
5z"/>
<path d="M397 1406 c-3 -8 0 -22 7 -32 18 -24 46 -11 46 21 0 20 -5 25 -24 25
-13 0 -26 -6 -29 -14z"/>
<path d="M3744 1406 c-10 -26 4 -48 28 -44 17 2 23 10 23 28 0 18 -6 26 -23
28 -13 2 -25 -3 -28 -12z"/>
<path d="M460 1296 c-18 -22 -5 -46 25 -46 23 0 26 4 23 27 -3 32 -29 41 -48
19z"/>
<path d="M3684 1286 c-10 -26 4 -48 28 -44 17 2 23 10 23 28 0 18 -6 26 -23
28 -13 2 -25 -3 -28 -12z"/>
<path d="M527 1184 c-12 -13 -8 -42 8 -48 25 -9 46 5 43 28 -3 21 -37 34 -51
20z"/>
<path d="M3620 1176 c-18 -22 -5 -46 25 -46 23 0 26 4 23 27 -3 32 -29 41 -48
19z"/>
<path d="M600 1075 c-17 -21 -5 -45 24 -45 28 0 37 17 24 43 -11 21 -31 22
-48 2z"/>
<path d="M3544 1066 c-10 -26 4 -48 28 -44 17 2 23 10 23 28 0 18 -6 26 -23
28 -13 2 -25 -3 -28 -12z"/>
<path d="M676 964 c-7 -19 10 -44 30 -44 16 0 33 30 27 48 -7 18 -50 15 -57
-4z"/>
<path d="M3462 963 c-13 -26 -4 -43 23 -43 27 0 40 26 24 46 -16 19 -37 17
-47 -3z"/>
<path d="M771 877 c-21 -26 10 -65 38 -47 17 10 10 54 -10 58 -9 1 -21 -4 -28
-11z"/>
<path d="M3370 855 c0 -31 26 -43 46 -23 20 20 7 48 -22 48 -19 0 -24 -5 -24
-25z"/>
<path d="M872 791 c-23 -14 -10 -46 18 -46 20 0 25 5 25 25 0 26 -20 36 -43
21z"/>
<path d="M3274 776 c-10 -26 4 -48 28 -44 17 2 23 10 23 28 0 18 -6 26 -23 28
-13 2 -25 -3 -28 -12z"/>
<path d="M971 707 c-15 -15 -14 -32 3 -46 20 -16 46 -3 46 24 0 25 -32 39 -49
22z"/>
<path d="M3174 696 c-10 -26 4 -48 28 -44 17 2 23 10 23 28 0 18 -6 26 -23 28
-13 2 -25 -3 -28 -12z"/>
<path d="M1074 626 c-10 -26 4 -48 28 -44 17 2 23 10 23 28 0 18 -6 26 -23 28
-13 2 -25 -3 -28 -12z"/>
<path d="M3070 625 c-18 -21 -5 -47 22 -43 26 3 37 36 16 49 -18 12 -24 11
-38 -6z"/>
<path d="M1183 554 c-8 -20 21 -49 41 -41 9 4 16 18 16 32 0 20 -5 25 -25 25
-14 0 -28 -7 -32 -16z"/>
<path d="M2954 555 c-9 -23 3 -45 26 -45 25 0 37 25 20 45 -16 19 -39 19 -46
0z"/>
<path d="M1307 503 c-13 -12 -7 -41 10 -47 21 -8 48 17 40 38 -6 16 -38 22
-50 9z"/>
<path d="M2834 496 c-10 -26 4 -48 28 -44 17 2 23 10 23 28 0 18 -6 26 -23 28
-13 2 -25 -3 -28 -12z"/>
<path d="M1427 454 c-10 -11 -9 -42 3 -49 20 -12 51 6 48 28 -3 22 -36 35 -51
21z"/>
<path d="M2714 446 c-10 -26 4 -48 28 -44 17 2 23 10 23 28 0 18 -6 26 -23 28
-13 2 -25 -3 -28 -12z"/>
<path d="M1546 404 c-7 -19 10 -44 29 -44 19 0 36 25 29 44 -3 9 -16 16 -29
16 -13 0 -26 -7 -29 -16z"/>
<path d="M2591 407 c-17 -21 -3 -49 23 -45 15 2 21 10 21 28 0 28 -26 38 -44
17z"/>
<path d="M1674 376 c-10 -26 4 -48 28 -44 17 2 23 10 23 28 0 18 -6 26 -23 28
-13 2 -25 -3 -28 -12z"/>
<path d="M2467 383 c-4 -3 -7 -17 -7 -30 0 -18 5 -23 25 -23 14 0 28 7 31 15
11 27 -30 58 -49 38z"/>
<path d="M1813 363 c-19 -7 -16 -50 4 -57 24 -10 51 20 37 41 -12 19 -23 24
-41 16z"/>
<path d="M2343 363 c-19 -7 -16 -50 4 -57 24 -10 51 20 37 41 -12 19 -23 24
-41 16z"/>
<path d="M1934 336 c-10 -26 4 -48 28 -44 17 2 23 10 23 28 0 18 -6 26 -23 28
-13 2 -25 -3 -28 -12z"/>
<path d="M2072 341 c-23 -14 -10 -46 18 -46 16 0 26 6 28 19 3 16 -12 36 -28
36 -3 0 -11 -4 -18 -9z"/>
<path d="M2204 335 c-9 -23 3 -45 25 -45 20 0 37 32 26 50 -9 15 -45 12 -51
-5z"/>
</g>
</svg>
